<svg>
    <svg id='cow' xmlns="http://www.w3.org/2000/svg" version="1.0" width="51.000000pt" height="58.000000pt" viewBox="0 0 51.000000 58.000000" preserveAspectRatio="xMidYMid meet">
<g transform="translate(0.000000,58.000000) scale(0.100000,-0.100000)" fill="#0A9150" stroke="none">
<path d="M62 530 l1 -55 7 45 c4 25 8 40 8 33 3 -17 51 -72 75 -85 11 -6 3 7 -19 29 -21 22 -47 50 -56 64 -17 24 -17 24 -16 -31z"/>
<path d="M441 580 c-1 -3 -3 -32 -5 -65 -1 -33 -6 -68 -10 -77 -7 -16 -3 -18 32 -18 34 0 41 -4 45 -22 4 -20 4 -19 6 5 1 25 -2 27 -38 27 -40 0 -40 0 -30 29 8 23 8 139 0 121z"/>
<path d="M385 464 c-25 -20 -28 -26 -15 -34 23 -15 36 -12 16 3 -17 12 -17 14 -2 20 9 4 16 1 16 -6 0 -7 5 -4 11 6 18 31 5 36 -26 11z"/>
<path d="M260 460 l-85 -6 82 -2 c46 -1 85 2 88 8 3 6 5 9 3 8 -2 -1 -41 -5 -88 -8z"/>
<path d="M43 433 c-35 -3 -43 -8 -43 -24 0 -36 31 -80 64 -94 27 -11 35 -22 40 -51 9 -47 17 -39 9 9 -5 30 -11 38 -39 47 -21 7 -40 23 -49 40 -25 48 -20 60 25 60 22 0 40 5 40 10 0 6 -1 9 -2 8 -2 -1 -22 -3 -45 -5z"/>
<path d="M196 381 c-10 -11 -16 -28 -13 -38 4 -16 5 -15 6 3 0 11 6 25 13 32 18 18 88 15 112 -5 21 -18 21 -18 2 5 -25 29 -95 31 -120 3z"/>
<path d="M443 326 c-35 -16 -43 -25 -42 -46 2 -23 2 -24 6 -2 3 14 17 28 37 36 19 8 37 19 40 25 4 6 6 10 4 9 -2 0 -22 -10 -45 -22z"/>
<path d="M140 285 c-10 -12 -10 -18 0 -29 12 -16 40 -11 40 6 0 6 -6 6 -14 -1 -10 -8 -16 -9 -21 -1 -9 15 5 32 21 26 8 -3 14 -1 14 4 0 15 -26 12 -40 -5z"/>
<path d="M334 285 c-9 -22 22 -53 37 -38 15 15 7 47 -14 51 -9 2 -20 -4 -23 -13z m36 -16 c0 -24 -23 -21 -28 4 -2 10 3 17 12 17 10 0 16 -9 16 -21z"/>
<path d="M284 193 c1 -46 7 -77 15 -85 11 -11 12 -10 5 2 -4 8 -11 46 -15 85 l-7 70 2 -72z"/>
<path d="M137 135 c3 -38 7 -72 9 -74 7 -8 2 94 -6 119 -5 15 -6 -4 -3 -45z"/>
<path d="M362 94 c-1 -33 -6 -65 -12 -72 -5 -7 -3 -6 6 1 11 10 14 29 11 73 l-3 59 -2 -61z"/>
<path d="M192 92 c-13 -19 -21 -41 -18 -48 6 -16 32 -19 40 -5 4 5 -3 7 -14 4 -26 -7 -26 10 2 47 12 16 20 32 17 34 -2 2 -14 -12 -27 -32z"/>
<path d="M321 73 c17 -28 6 -40 -25 -24 -12 7 -34 11 -47 8 -20 -3 -18 -5 8 -6 17 0 35 -5 38 -11 3 -5 15 -10 26 -10 24 0 26 32 2 51 -15 13 -15 12 -2 -8z"/>
</g>
</svg>

<svg id='chicken' xmlns="http://www.w3.org/2000/svg" version="1.0" width="300.000000pt" height="312.000000pt" viewBox="0 0 300.000000 312.000000" preserveAspectRatio="xMidYMid meet">
<g transform="translate(0.000000,312.000000) scale(0.100000,-0.100000)" fill="#0A9150" stroke="none">
</g>
</svg>

<svg id='tractor' xmlns="http://www.w3.org/2000/svg" version="1.0" width="64.000000pt" height="53.000000pt" viewBox="0 0 64.000000 53.000000" preserveAspectRatio="xMidYMid meet">
<g transform="translate(0.000000,53.000000) scale(0.100000,-0.100000)" fill="#0A9150" stroke="none">
<path d="M51 513 c-1 -17 5 -23 19 -23 18 0 20 -7 20 -60 0 -38 -4 -60 -11 -60 -7 0 -27 -10 -46 -21 -32 -20 -33 -22 -18 -39 16 -18 18 -18 48 1 76 46 195 13 243 -67 13 -21 24 -35 24 -30 0 23 -46 79 -84 101 -54 32 -136 34 -183 6 -26 -16 -33 -17 -43 -6 -8 10 -1 18 35 35 l45 22 0 60 c0 51 -3 61 -19 65 -11 3 -22 12 -24 22 -3 11 -5 9 -6 -6z"/>
<path d="M132 443 l2 -58 3 53 4 52 70 0 c63 0 71 -2 79 -22 5 -14 9 -17 9 -7 2 29 -22 39 -96 39 l-73 0 2 -57z"/>
<path d="M485 488 c-30 -17 -35 -28 -35 -90 l0 -58 -39 0 c-29 0 -41 5 -45 18 -4 13 -4 13 -3 -3 2 -17 10 -20 47 -20 l45 0 3 60 c3 62 16 89 39 81 7 -3 13 1 13 9 0 18 1 18 -25 3z"/>
<path d="M178 370 c29 -4 63 -15 77 -24 13 -9 37 -15 52 -15 l28 2 -30 6 c-16 4 -47 15 -67 24 -21 9 -54 16 -75 16 -34 -1 -32 -2 15 -9z"/>
<path d="M105 299 c-17 -4 -44 -23 -60 -41 l-30 -32 36 31 c64 53 141 52 203 -4 l31 -28 -29 33 c-17 17 -46 37 -65 42 -41 11 -45 11 -86 -1z"/>
<path d="M320 303 c0 -5 48 -7 106 -5 114 4 134 -3 134 -44 0 -24 -1 -24 -100 -24 -55 0 -100 4 -100 8 0 5 -7 17 -15 28 -14 17 -14 15 0 -13 l16 -33 104 0 105 0 0 28 c0 52 -24 62 -143 62 -59 0 -107 -3 -107 -7z"/>
<path d="M104 256 c-31 -14 -64 -50 -64 -71 0 -5 9 4 19 21 12 20 34 37 55 44 49 16 101 -2 127 -44 10 -17 19 -26 19 -21 0 21 -34 58 -66 71 -41 17 -50 17 -90 0z"/>
<path d="M332 149 l-2 -57 45 -4 c25 -2 45 0 45 4 0 5 -18 8 -39 8 l-40 0 -4 53 -3 52 -2 -56z"/>
<path d="M371 158 c2 -31 2 -31 6 -5 3 21 10 27 28 27 19 0 23 -4 18 -17 -7 -19 -5 -18 16 10 12 16 10 17 -28 17 -40 0 -41 -1 -40 -32z"/>
<path d="M479 169 l-24 -21 25 16 c37 24 75 20 99 -10 27 -35 26 -59 -4 -89 -45 -46 -102 -26 -115 41 -8 39 -8 39 -9 6 -1 -41 36 -82 74 -82 32 0 85 49 85 78 0 11 -12 34 -26 51 -31 37 -71 41 -105 10z"/>
<path d="M91 149 c-2 -52 68 -79 103 -40 10 11 16 29 13 43 -4 22 -4 22 -6 -2 -1 -34 -19 -50 -52 -50 -30 0 -45 14 -52 50 l-4 25 -2 -26z"/>
<path d="M10 83 c0 -14 77 -83 93 -83 6 0 -2 9 -19 19 -17 10 -40 31 -52 46 -12 15 -22 23 -22 18z"/>
<path d="M73 65 c23 -26 35 -30 77 -30 42 0 54 4 77 30 l28 29 -28 -24 c-40 -35 -114 -35 -154 0 l-28 24 28 -29z"/>
<path d="M266 63 c-10 -13 -32 -33 -50 -44 -17 -10 -25 -19 -18 -19 15 0 99 76 92 83 -3 3 -13 -6 -24 -20z"/>
</g>
</svg>

<svg id='egg' xmlns="http://www.w3.org/2000/svg" version="1.0" width="300.000000pt" height="349.000000pt" viewBox="0 0 300.000000 349.000000" preserveAspectRatio="xMidYMid meet">
<g transform="translate(0.000000,349.000000) scale(0.100000,-0.100000)" fill="#0A9150" stroke="none">
</g>
</svg>
</svg>